<svg width="534" height="85" viewBox="0 0 534 85" fill="none" xmlns="http://www.w3.org/2000/svg">
<path fill-rule="evenodd" clip-rule="evenodd" d="M0.350342 82.4221V84.1706H2.09887H6.13858H7.58564H9.33417H10.1783H11.9268H13.3739H14.8209H16.5695H17.4136H19.1621H20.6092H22.0562H23.8048H24.6489H26.3974H27.8445H29.2915H31.0401H31.8842H33.6327H35.0798H39.1195H40.868V82.4221V78.3824V74.3427V72.5942H39.1195H35.0798H33.6327H31.8842H31.0401H29.2915H27.8445H26.3974V71.1471V69.7V67.9515V67.1074V65.3589V63.9118V62.4647V60.7162V59.8721V58.1236V56.6765V55.2295V53.4809V52.6368V50.8883V49.4412V47.9942V46.2456V45.4015V43.653V42.2059V40.7589V39.0103V38.1662V36.4177V34.9706V33.5236V31.775V30.9309V29.1824V27.7353V26.2883V24.5397V23.6956V21.9471V20.5V19.053V17.3044V16.4603V14.7118V13.2647V11.8177V10.0692V9.22504V7.4765V6.02945V1.98974V0.241211H24.6489H20.6092H16.5695H14.8209V1.98974V3.85886H13.3739H9.33417H7.58564V5.60739V7.4765H6.13858H2.09887H0.350342V9.22504V13.2647V17.3044V19.053H2.09887H6.13858H10.1783H11.9268V17.3044V15.4353H13.3739H14.8209V16.4603V17.3044V19.053V20.5V21.9471V23.6956V24.5397V26.2883V27.7353V29.1824V30.9309V31.775V33.5236V34.9706V36.4177V38.1662V39.0103V40.7589V42.2059V43.653V45.4015V46.2456V47.9942V49.4412V50.8883V52.6368V53.4809V55.2295V56.6765V58.1236V59.8721V60.7162V62.4647V63.9118V65.3589V67.1074V67.9515V69.7V71.1471V72.5942H13.3739H11.9268H10.1783H9.33417H7.58564H6.13858H2.09887H0.350342V74.3427V78.3824V82.4221ZM58.2751 84.1706V82.4221V78.3824V76.9353H56.828H52.7883H51.0398V75.1868V71.1471V69.7V67.9515V67.1074V65.3589V63.9118V62.4647V60.7162V59.8721V58.1236V56.6765V55.2295V53.4809V52.6368V50.8883V49.4412V47.9942V46.2456V45.4015V43.653V42.2059V40.7589V39.0103V38.1662V36.4177V34.9706V33.5236V31.775V30.9309V29.1824V27.7353V26.2883V24.5397V23.6956V21.9471V20.5V19.053V17.3044V16.4603V14.7118V13.2647V9.22504V7.4765H52.7883H56.828H58.2751V6.02945V1.98974V0.241211H60.0236H64.0633H65.5104H67.2589H68.103H69.8516H71.2986H72.7457H74.4942H75.3383H77.0869H78.5339H82.5736H84.3222V1.98974V6.02945V7.4765H85.7692H89.8089H91.5574V9.22504V13.2647V14.7118V16.4603V17.3044V19.053V20.5V21.9471V23.6956V24.5397V26.2883V27.7353V29.1824V30.9309V31.775V33.5236V34.9706V36.4177V38.1662V39.0103V40.7589V42.2059V43.653V45.4015V46.2456V47.9942V49.4412V50.8883V52.6368V53.4809V55.2295V56.6765V58.1236V59.8721V60.7162V62.4647V63.9118V65.3589V67.1074V67.9515V69.7V71.1471V75.1868V76.9353H89.8089H85.7692H84.3222V78.3824V82.4221V84.1706H82.5736H78.5339H77.0869H75.3383H74.4942H72.7457H71.2986H69.8516H68.103H67.2589H65.5104H64.0633H60.0236H58.2751ZM64.0633 72.5942H62.6163V71.1471V69.7V67.9515V67.1074V65.3589V63.9118V62.4647V60.7162V59.8721V58.1236V56.6765V55.2295V53.4809V52.6368V50.8883V49.4412V47.9942V46.2456V45.4015V43.653V42.2059V40.7589V39.0103V38.1662V36.4177V34.9706V33.5236V31.775V30.9309V29.1824V27.7353V26.2883V24.5397V23.6956V21.9471V20.5V19.053V17.3044V16.4603V14.7118V13.2647V11.8177H64.0633H65.5104H67.2589H68.103H69.8516H71.2986H72.7457H74.4942H75.3383H77.0869H78.5339H79.981V13.2647V14.7118V16.4603V17.3044V19.053V20.5V21.9471V23.6956V24.5397V26.2883V27.7353V29.1824V30.9309V31.775V33.5236V34.9706V36.4177V38.1662V39.0103V40.7589V42.2059V43.653V45.4015V46.2456V47.9942V49.4412V50.8883V52.6368V53.4809V55.2295V56.6765V58.1236V59.8721V60.7162V62.4647V63.9118V65.3589V67.1074V67.9515V69.7V71.1471V72.5942H78.5339H77.0869H75.3383H74.4942H72.7457H71.2986H69.8516H68.103H67.2589H65.5104H64.0633ZM130.706 82.4221V84.1706H132.454H136.494H137.941H139.69H140.534H142.282H143.729H145.176H146.925H147.769H149.518H150.965H155.004H156.753V82.4221V78.3824V76.9353H158.2H162.24H163.988V75.1868V71.1471V69.7V67.9515V67.1074V65.3589V63.9118V62.4647V60.7162V59.8721V58.1236V56.6765V55.2295V53.4809V52.6368V50.8883V49.4412V47.9942V46.2456V45.4015V43.653V42.2059V40.7589V39.0103V38.1662V36.4177V34.9706V33.5236V31.775V30.9309V29.1824V27.7353V26.2883V24.5397V23.6956V21.9471V20.5V19.053V17.3044V16.4603V14.7118V13.2647V9.22504V7.4765H162.24H158.2H156.753V6.02945V1.98974V0.241211H155.004H150.965H149.518H147.769H146.925H145.176H143.729H142.282H140.534H139.69H137.941H136.494H132.454H130.706V1.98974V6.02945V7.4765H129.259H125.219H123.47V9.22504V13.2647V14.7118V16.4603V17.3044V19.053V20.5V21.9471V23.6956V24.5397V26.2883V27.7353V29.1824V30.9309V31.775V33.5236V34.9706V36.4177V38.1662V39.0103V40.7589V42.2059V43.653V45.4015V46.2456V47.9942V49.4412V50.8883V52.6368V53.4809V55.2295V56.6765V58.1236V59.8721V60.7162V62.4647V63.9118V65.3589V67.1074V67.9515V69.7V71.1471V75.1868V76.9353H125.219H129.259H130.706V78.3824V82.4221ZM135.047 72.5942H136.494H137.941H139.69H140.534H142.282H143.729H145.176H146.925H147.769H149.518H150.965H152.412V71.1471V69.7V67.9515V67.1074V65.3589V63.9118V62.4647V60.7162V59.8721V58.1236V56.6765V55.2295V53.4809V52.6368V50.8883V49.4412V47.9942V46.2456V45.4015V43.653V42.2059V40.7589V39.0103V38.1662V36.4177V34.9706V33.5236V31.775V30.9309V29.1824V27.7353V26.2883V24.5397V23.6956V21.9471V20.5V19.053V17.3044V16.4603V14.7118V13.2647V11.8177H150.965H149.518H147.769H146.925H145.176H143.729H142.282H140.534H139.69H137.941H136.494H135.047V13.2647V14.7118V16.4603V17.3044V19.053V20.5V21.9471V23.6956V24.5397V26.2883V27.7353V29.1824V30.9309V31.775V33.5236V34.9706V36.4177V38.1662V39.0103V40.7589V42.2059V43.653V45.4015V46.2456V47.9942V49.4412V50.8883V52.6368V53.4809V55.2295V56.6765V58.1236V59.8721V60.7162V62.4647V63.9118V65.3589V67.1074V67.9515V69.7V71.1471V72.5942ZM181.395 84.1706V82.4221V78.3824V76.9353H179.948H175.908H174.16V75.1868V71.1471V69.7V67.9515V67.1074V65.3589V63.9118V62.4647V60.7162V59.8721V58.1236V56.6765V55.2295V53.4809V52.6368V50.8883V49.4412V47.9942V46.2456V45.4015V43.653V42.2059V40.7589V39.0103V38.1662V36.4177V34.9706V33.5236V31.775V30.9309V29.1824V27.7353V26.2883V24.5397V23.6956V21.9471V20.5V19.053V17.3044V16.4603V14.7118V13.2647V9.22504V7.4765H175.908H179.948H181.395V6.02945V1.98974V0.241211H183.144H187.183H188.63H190.379H191.223H192.972H194.419H195.866H197.614H198.458H200.207H201.654H205.694H207.442V1.98974V6.02945V7.4765H208.889H212.929H214.678V9.22504V13.2647V14.7118V16.4603V17.3044V19.053V20.5V21.9471V23.6956V24.5397V26.2883V27.7353V29.1824V30.9309V31.775V33.5236V34.9706V36.4177V38.1662V39.0103V40.7589V42.2059V43.653V45.4015V46.2456V47.9942V49.4412V50.8883V52.6368V53.4809V55.2295V56.6765V58.1236V59.8721V60.7162V62.4647V63.9118V65.3589V67.1074V67.9515V69.7V71.1471V75.1868V76.9353H212.929H208.889H207.442V78.3824V82.4221V84.1706H205.694H201.654H200.207H198.458H197.614H195.866H194.419H192.972H191.223H190.379H188.63H187.183H183.144H181.395ZM187.183 72.5942H185.736V71.1471V69.7V67.9515V67.1074V65.3589V63.9118V62.4647V60.7162V59.8721V58.1236V56.6765V55.2295V53.4809V52.6368V50.8883V49.4412V47.9942V46.2456V45.4015V43.653V42.2059V40.7589V39.0103V38.1662V36.4177V34.9706V33.5236V31.775V30.9309V29.1824V27.7353V26.2883V24.5397V23.6956V21.9471V20.5V19.053V17.3044V16.4603V14.7118V13.2647V11.8177H187.183H188.63H190.379H191.223H192.972H194.419H195.866H197.614H198.458H200.207H201.654H203.101V13.2647V14.7118V16.4603V17.3044V19.053V20.5V21.9471V23.6956V24.5397V26.2883V27.7353V29.1824V30.9309V31.775V33.5236V34.9706V36.4177V38.1662V39.0103V40.7589V42.2059V43.653V45.4015V46.2456V47.9942V49.4412V50.8883V52.6368V53.4809V55.2295V56.6765V58.1236V59.8721V60.7162V62.4647V63.9118V65.3589V67.1074V67.9515V69.7V71.1471V72.5942H201.654H200.207H198.458H197.614H195.866H194.419H192.972H191.223H190.379H188.63H187.183ZM232.085 82.4221V84.1706H233.833H237.873H239.32H241.068H241.913H243.661H245.108H246.555H248.304H249.148H250.896H252.343H256.383H258.132V82.4221V78.3824V76.9353H259.579H263.618H265.367V75.1868V71.1471V69.7V67.9515V67.1074V65.3589V63.9118V62.4647V60.7162V59.8721V58.1236V56.6765V55.2295V53.4809V52.6368V50.8883V49.4412V47.9942V46.2456V45.4015V43.653V42.2059V40.7589V39.0103V38.1662V36.4177V34.9706V33.5236V31.775V30.9309V29.1824V27.7353V26.2883V24.5397V23.6956V21.9471V20.5V19.053V17.3044V16.4603V14.7118V13.2647V9.22504V7.4765H263.618H259.579H258.132V6.02945V1.98974V0.241211H256.383H252.343H250.896H249.148H248.304H246.555H245.108H243.661H241.913H241.068H239.32H237.873H233.833H232.085V1.98974V6.02945V7.4765H230.638H226.598H224.849V9.22504V13.2647V14.7118V16.4603V17.3044V19.053V20.5V21.9471V23.6956V24.5397V26.2883V27.7353V29.1824V30.9309V31.775V33.5236V34.9706V36.4177V38.1662V39.0103V40.7589V42.2059V43.653V45.4015V46.2456V47.9942V49.4412V50.8883V52.6368V53.4809V55.2295V56.6765V58.1236V59.8721V60.7162V62.4647V63.9118V65.3589V67.1074V67.9515V69.7V71.1471V75.1868V76.9353H226.598H230.638H232.085V78.3824V82.4221ZM236.426 72.5942H237.873H239.32H241.068H241.913H243.661H245.108H246.555H248.304H249.148H250.896H252.343H253.791V71.1471V69.7V67.9515V67.1074V65.3589V63.9118V62.4647V60.7162V59.8721V58.1236V56.6765V55.2295V53.4809V52.6368V50.8883V49.4412V47.9942V46.2456V45.4015V43.653V42.2059V40.7589V39.0103V38.1662V36.4177V34.9706V33.5236V31.775V30.9309V29.1824V27.7353V26.2883V24.5397V23.6956V21.9471V20.5V19.053V17.3044V16.4603V14.7118V13.2647V11.8177H252.343H250.896H249.148H248.304H246.555H245.108H243.661H241.913H241.068H239.32H237.873H236.426V13.2647V14.7118V16.4603V17.3044V19.053V20.5V21.9471V23.6956V24.5397V26.2883V27.7353V29.1824V30.9309V31.775V33.5236V34.9706V36.4177V38.1662V39.0103V40.7589V42.2059V43.653V45.4015V46.2456V47.9942V49.4412V50.8883V52.6368V53.4809V55.2295V56.6765V58.1236V59.8721V60.7162V62.4647V63.9118V65.3589V67.1074V67.9515V69.7V71.1471V72.5942ZM304.515 84.1706V82.4221V78.3824V76.9353H303.068H299.029H297.28V75.1868V71.1471V69.7V67.9515V67.1074V65.3589V63.9118V62.4647V60.7162V59.8721V58.1236V56.6765V55.2295V53.4809V52.6368V50.8883V49.4412V47.9942V46.2456V45.4015V43.653V42.2059V40.7589V39.0103V38.1662V36.4177V34.9706V33.5236V31.775V30.9309V29.1824V27.7353V26.2883V24.5397V23.6956V21.9471V20.5V19.053V17.3044V16.4603V14.7118V13.2647V9.22504V7.4765H299.029H303.068H304.515V6.02945V1.98974V0.241211H306.264H310.304H311.751H313.499H314.343H316.092H317.539H318.986H320.734H321.579H323.327H324.774H328.814H330.562V1.98974V6.02945V7.4765H332.009H336.049H337.798V9.22504V13.2647V14.7118V16.4603V17.3044V19.053V20.5V21.9471V23.6956V24.5397V26.2883V27.7353V29.1824V30.9309V31.775V33.5236V34.9706V36.4177V38.1662V39.0103V40.7589V42.2059V43.653V45.4015V46.2456V47.9942V49.4412V50.8883V52.6368V53.4809V55.2295V56.6765V58.1236V59.8721V60.7162V62.4647V63.9118V65.3589V67.1074V67.9515V69.7V71.1471V75.1868V76.9353H336.049H332.009H330.562V78.3824V82.4221V84.1706H328.814H324.774H323.327H321.579H320.734H318.986H317.539H316.092H314.343H313.499H311.751H310.304H306.264H304.515ZM310.304 72.5942H308.857V71.1471V69.7V67.9515V67.1074V65.3589V63.9118V62.4647V60.7162V59.8721V58.1236V56.6765V55.2295V53.4809V52.6368V50.8883V49.4412V47.9942V46.2456V45.4015V43.653V42.2059V40.7589V39.0103V38.1662V36.4177V34.9706V33.5236V31.775V30.9309V29.1824V27.7353V26.2883V24.5397V23.6956V21.9471V20.5V19.053V17.3044V16.4603V14.7118V13.2647V11.8177H310.304H311.751H313.499H314.343H316.092H317.539H318.986H320.734H321.579H323.327H324.774H326.221V13.2647V14.7118V16.4603V17.3044V19.053V20.5V21.9471V23.6956V24.5397V26.2883V27.7353V29.1824V30.9309V31.775V33.5236V34.9706V36.4177V38.1662V39.0103V40.7589V42.2059V43.653V45.4015V46.2456V47.9942V49.4412V50.8883V52.6368V53.4809V55.2295V56.6765V58.1236V59.8721V60.7162V62.4647V63.9118V65.3589V67.1074V67.9515V69.7V71.1471V72.5942H324.774H323.327H321.579H320.734H318.986H317.539H316.092H314.343H313.499H311.751H310.304ZM355.205 82.4221V84.1706H356.953H360.993H362.44H364.189H365.033H366.781H368.228H369.675H371.424H372.268H374.017H375.464H379.503H381.252V82.4221V78.3824V76.9353H382.699H386.739H388.487V75.1868V71.1471V69.7V67.9515V67.1074V65.3589V63.9118V62.4647V60.7162V59.8721V58.1236V56.6765V55.2295V53.4809V52.6368V50.8883V49.4412V47.9942V46.2456V45.4015V43.653V42.2059V40.7589V39.0103V38.1662V36.4177V34.9706V33.5236V31.775V30.9309V29.1824V27.7353V26.2883V24.5397V23.6956V21.9471V20.5V19.053V17.3044V16.4603V14.7118V13.2647V9.22504V7.4765H386.739H382.699H381.252V6.02945V1.98974V0.241211H379.503H375.464H374.017H372.268H371.424H369.675H368.228H366.781H365.033H364.189H362.44H360.993H356.953H355.205V1.98974V6.02945V7.4765H353.758H349.718H347.969V9.22504V13.2647V14.7118V16.4603V17.3044V19.053V20.5V21.9471V23.6956V24.5397V26.2883V27.7353V29.1824V30.9309V31.775V33.5236V34.9706V36.4177V38.1662V39.0103V40.7589V42.2059V43.653V45.4015V46.2456V47.9942V49.4412V50.8883V52.6368V53.4809V55.2295V56.6765V58.1236V59.8721V60.7162V62.4647V63.9118V65.3589V67.1074V67.9515V69.7V71.1471V75.1868V76.9353H349.718H353.758H355.205V78.3824V82.4221ZM359.546 72.5942H360.993H362.44H364.189H365.033H366.781H368.228H369.675H371.424H372.268H374.017H375.464H376.911V71.1471V69.7V67.9515V67.1074V65.3589V63.9118V62.4647V60.7162V59.8721V58.1236V56.6765V55.2295V53.4809V52.6368V50.8883V49.4412V47.9942V46.2456V45.4015V43.653V42.2059V40.7589V39.0103V38.1662V36.4177V34.9706V33.5236V31.775V30.9309V29.1824V27.7353V26.2883V24.5397V23.6956V21.9471V20.5V19.053V17.3044V16.4603V14.7118V13.2647V11.8177H375.464H374.017H372.268H371.424H369.675H368.228H366.781H365.033H364.189H362.44H360.993H359.546V13.2647V14.7118V16.4603V17.3044V19.053V20.5V21.9471V23.6956V24.5397V26.2883V27.7353V29.1824V30.9309V31.775V33.5236V34.9706V36.4177V38.1662V39.0103V40.7589V42.2059V43.653V45.4015V46.2456V47.9942V49.4412V50.8883V52.6368V53.4809V55.2295V56.6765V58.1236V59.8721V60.7162V62.4647V63.9118V65.3589V67.1074V67.9515V69.7V71.1471V72.5942ZM405.894 84.1706V82.4221V78.3824V76.9353H404.447H400.407H398.659V75.1868V71.1471V69.7V67.9515V67.1074V65.3589V63.9118V62.4647V60.7162V59.8721V58.1236V56.6765V55.2295V53.4809V52.6368V50.8883V49.4412V47.9942V46.2456V45.4015V43.653V42.2059V40.7589V39.0103V38.1662V36.4177V34.9706V33.5236V31.775V30.9309V29.1824V27.7353V26.2883V24.5397V23.6956V21.9471V20.5V19.053V17.3044V16.4603V14.7118V13.2647V9.22504V7.4765H400.407H404.447H405.894V6.02945V1.98974V0.241211H407.643H411.682H413.13H414.878H415.722H417.471H418.918H420.365H422.113H422.957H424.706H426.153H430.193H431.941V1.98974V6.02945V7.4765H433.388H437.428H439.177V9.22504V13.2647V14.7118V16.4603V17.3044V19.053V20.5V21.9471V23.6956V24.5397V26.2883V27.7353V29.1824V30.9309V31.775V33.5236V34.9706V36.4177V38.1662V39.0103V40.7589V42.2059V43.653V45.4015V46.2456V47.9942V49.4412V50.8883V52.6368V53.4809V55.2295V56.6765V58.1236V59.8721V60.7162V62.4647V63.9118V65.3589V67.1074V67.9515V69.7V71.1471V75.1868V76.9353H437.428H433.388H431.941V78.3824V82.4221V84.1706H430.193H426.153H424.706H422.957H422.113H420.365H418.918H417.471H415.722H414.878H413.13H411.682H407.643H405.894ZM411.682 72.5942H410.235V71.1471V69.7V67.9515V67.1074V65.3589V63.9118V62.4647V60.7162V59.8721V58.1236V56.6765V55.2295V53.4809V52.6368V50.8883V49.4412V47.9942V46.2456V45.4015V43.653V42.2059V40.7589V39.0103V38.1662V36.4177V34.9706V33.5236V31.775V30.9309V29.1824V27.7353V26.2883V24.5397V23.6956V21.9471V20.5V19.053V17.3044V16.4603V14.7118V13.2647V11.8177H411.682H413.13H414.878H415.722H417.471H418.918H420.365H422.113H422.957H424.706H426.153H427.6V13.2647V14.7118V16.4603V17.3044V19.053V20.5V21.9471V23.6956V24.5397V26.2883V27.7353V29.1824V30.9309V31.775V33.5236V34.9706V36.4177V38.1662V39.0103V40.7589V42.2059V43.653V45.4015V46.2456V47.9942V49.4412V50.8883V52.6368V53.4809V55.2295V56.6765V58.1236V59.8721V60.7162V62.4647V63.9118V65.3589V67.1074V67.9515V69.7V71.1471V72.5942H426.153H424.706H422.957H422.113H420.365H418.918H417.471H415.722H414.878H413.13H411.682ZM478.325 84.1706V82.4221V78.3824V76.9353H476.878H472.838H471.09V75.1868V71.1471V69.7V67.9515V67.1074V65.3589V63.9118V59.8721V58.1236H472.838H474.707V56.6765V55.2295H472.838H471.09V53.4809V49.4412V45.4015V43.653H472.838H476.878H478.325H480.073H480.918H482.666H484.113H485.56H487.309H488.153H489.901H491.348H492.796H494.544H495.388H497.137H498.584H500.031H501.779H502.623H504.372H505.819H509.859H511.607V45.4015V49.4412V53.4809V55.2295H509.859H505.819H504.372H502.623H501.779H500.031H498.584H497.137H495.388H494.544H492.796H491.348H489.901H488.153H487.309H486.284V56.6765V60.7162V62.4647H484.535H482.666V63.9118V65.3589V67.1074V67.9515V69.7V71.1471V72.5942H484.113H485.56H487.309H488.153H489.901H491.348H492.796H494.544H495.388H497.137H498.584H500.031V71.1471V67.1074V65.3589H501.779H505.819H509.859H511.607V67.1074V71.1471V75.1868V76.9353H509.859H505.819H504.372V78.3824V82.4221V84.1706H502.623H498.584H497.137H495.388H494.544H492.796H491.348H489.901H488.153H487.309H485.56H484.113H480.073H478.325ZM471.09 40.7589V39.0103V34.9706V30.9309V29.1824H472.838H476.878H478.325H480.073H480.918H482.666H484.113H485.56H487.309H488.153H489.901H491.348H492.796H494.544H495.388H496.413V27.7353V23.6956V21.9471H498.162H500.031V20.5V19.053V17.3044V16.4603V14.7118V13.2647V11.8177H498.584H497.137H495.388H494.544H492.796H491.348H489.901H488.153H487.309H485.56H484.113H482.666V13.2647V17.3044V19.053H480.918H476.878H472.838H471.09V17.3044V13.2647V9.22504V7.4765H472.838H476.878H478.325V6.02945V1.98974V0.241211H480.073H484.113H485.56H487.309H488.153H489.901H491.348H492.796H494.544H495.388H497.137H498.584H502.623H504.372V1.98974V6.02945V7.4765H505.819H509.859H511.607V9.22504V13.2647V14.7118V16.4603V17.3044V19.053V20.5V24.5397V26.2883H509.859H507.99V27.7353V29.1824H509.859H511.607V30.9309V34.9706V39.0103V40.7589H509.859H505.819H504.372H502.623H501.779H500.031H498.584H497.137H495.388H494.544H492.796H491.348H489.901H488.153H487.309H485.56H484.113H482.666H480.918H480.073H478.325H476.878H472.838H471.09Z" fill="white"/>
<path d="M526.637 11.9353C526.637 11.9353 526.637 11.7789 526.637 11.4662V10.3824V9.29853V8.82941H527.106H528.19H529.274H529.743C529.743 8.82941 529.743 8.98578 529.743 9.29853V10.3824V11.4662V11.9353C529.743 11.9353 529.586 11.9353 529.274 11.9353H528.19H527.106H526.637ZM522.754 9.99412C522.754 9.99412 522.754 9.83774 522.754 9.525V8.44118V7.35735V6.88823H523.224H524.307H525.391H525.86C525.86 6.88823 525.86 7.04461 525.86 7.35735V8.44118V9.525V9.99412C525.86 9.99412 525.704 9.99412 525.391 9.99412H524.307H523.224H522.754ZM526.637 9.99412C526.637 9.99412 526.637 9.83774 526.637 9.525V8.44118V7.35735V6.88823H527.106H528.19H529.274H529.743C529.743 6.88823 529.743 7.04461 529.743 7.35735V8.44118V9.525V9.99412C529.743 9.99412 529.586 9.99412 529.274 9.99412H528.19H527.106H526.637ZM530.519 9.99412C530.519 9.99412 530.519 9.83774 530.519 9.525V8.44118V7.35735V6.88823H530.988H532.072H533.156H533.625C533.625 6.88823 533.625 7.04461 533.625 7.35735V8.44118V9.525V9.99412C533.625 9.99412 533.469 9.99412 533.156 9.99412H532.072H530.988H530.519ZM524.696 9.02353C524.696 9.02353 524.696 8.86716 524.696 8.55441V7.47059V6.38676V5.91765H525.165H526.249H527.332H527.802C527.802 5.91765 527.802 6.07402 527.802 6.38676V7.47059V8.55441V9.02353C527.802 9.02353 527.645 9.02353 527.332 9.02353H526.249H525.165H524.696ZM528.578 9.02353C528.578 9.02353 528.578 8.86716 528.578 8.55441V7.47059V6.38676V5.91765H529.047H530.131H531.215H531.684C531.684 5.91765 531.684 6.07402 531.684 6.38676V7.47059V8.55441V9.02353C531.684 9.02353 531.527 9.02353 531.215 9.02353H530.131H529.047H528.578ZM524.696 7.08235C524.696 7.08235 524.696 6.92598 524.696 6.61323V5.52941V4.44559V3.97647H525.165H526.249H527.332H527.802C527.802 3.97647 527.802 4.13284 527.802 4.44559V5.52941V6.61323V7.08235C527.802 7.08235 527.645 7.08235 527.332 7.08235H526.249H525.165H524.696ZM528.578 7.08235C528.578 7.08235 528.578 6.92598 528.578 6.61323V5.52941V4.44559V3.97647H529.047H530.131H531.215H531.684C531.684 3.97647 531.684 4.13284 531.684 4.44559V5.52941V6.61323V7.08235C531.684 7.08235 531.527 7.08235 531.215 7.08235H530.131H529.047H528.578ZM522.754 6.11176C522.754 6.11176 522.754 5.95539 522.754 5.64265V4.55882V3.475V3.00588H523.224H524.307H525.391H525.86C525.86 3.00588 525.86 3.16225 525.86 3.475V4.55882V5.64265V6.11176C525.86 6.11176 525.704 6.11176 525.391 6.11176H524.307H523.224H522.754ZM526.637 6.11176C526.637 6.11176 526.637 5.95539 526.637 5.64265V4.55882V3.475V3.00588H527.106H528.19H529.274H529.743C529.743 3.00588 529.743 3.16225 529.743 3.475V4.55882V5.64265V6.11176C529.743 6.11176 529.586 6.11176 529.274 6.11176H528.19H527.106H526.637ZM530.519 6.11176C530.519 6.11176 530.519 5.95539 530.519 5.64265V4.55882V3.475V3.00588H530.988H532.072H533.156H533.625C533.625 3.00588 533.625 3.16225 533.625 3.475V4.55882V5.64265V6.11176C533.625 6.11176 533.469 6.11176 533.156 6.11176H532.072H530.988H530.519ZM526.637 4.17059C526.637 4.17059 526.637 4.01421 526.637 3.70147V2.61765V1.53382V1.0647H527.106H528.19H529.274H529.743C529.743 1.0647 529.743 1.22108 529.743 1.53382V2.61765V3.70147V4.17059C529.743 4.17059 529.586 4.17059 529.274 4.17059H528.19H527.106H526.637Z" fill="white"/>
</svg>
